<?xml version="1.0" encoding="utf-8"?>
<!-- Generator: Adobe Illustrator 24.1.1, SVG Export Plug-In . SVG Version: 6.00 Build 0)  -->
<svg version="1.1" id="Layer_1" xmlns="http://www.w3.org/2000/svg" x="0px" y="0px"
     viewBox="0 0 100 100" style="enable-background:new 0 0 100 100;" xml:space="preserve">
<style type="text/css">
	.st0{fill:#ED2024;}
	.st1{fill:#FFFFFF;}
	.st2{font-family:'ArialMT';}
	.st3{font-size:29.4396px;}
</style>
<g>
	<g>
		<path class="st0" d="M12.1,71.5c-6.4,0-11.6-5.2-11.6-11.6V41.1c0-6.4,5.2-11.6,11.6-11.6h75.8c6.4,0,11.6,5.2,11.6,11.6v18.8
			c0,6.4-5.2,11.6-11.6,11.6H12.1z"/>
		<path class="st0" d="M87.9,30C94,30,99,35,99,41.1v18.8C99,66,94,71,87.9,71H12.1C6,71,1,66,1,59.9V41.1C1,35,6,30,12.1,30H87.9
			 M87.9,29H12.1C5.4,29,0,34.4,0,41.1v18.8C0,66.6,5.4,72,12.1,72h75.8c6.7,0,12.1-5.4,12.1-12.1V41.1C100,34.4,94.6,29,87.9,29
			L87.9,29z"/>
	</g>
</g>
<text transform="matrix(0.8552 0 0 1 27 59.6406)" class="st1 st2 st3">Play</text>
</svg>
